<?xml version="1.0" encoding="UTF-8"?>
<svg version="1.1" xmlns="http://www.w3.org/2000/svg" width="1024" height="1024">
<path d="M0 0 C337.92 0 675.84 0 1024 0 C1024 337.92 1024 675.84 1024 1024 C686.08 1024 348.16 1024 0 1024 C0 686.08 0 348.16 0 0 Z " fill="#0B0B0B" transform="translate(0,0)"/>
<path d="M0 0 C3.57536813 2.7880851 6.81298077 5.77907631 10 9 C10.93585938 9.88558594 10.93585938 9.88558594 11.890625 10.7890625 C15.99821766 14.98916851 18.66126824 19.74725476 21.3125 24.9375 C21.65039551 25.59371338 21.98829102 26.24992676 22.33642578 26.92602539 C29.68176851 41.97932902 29.06005037 61.37613203 23.72753906 77.02001953 C19.08207178 89.66254963 12.53164988 104.22407095 1 112 C1.57794641 107.28705556 2.52091594 102.96522338 3.9375 98.4375 C9.72650651 78.48121573 10.91548948 57.31176885 0.8125 38.5625 C-4.99108871 29.36832855 -12.73510415 23.0019715 -23.38671875 20.421875 C-39.15432431 17.87643195 -52.46421731 23.32726102 -65.2265625 32.2578125 C-81.1684112 43.98127481 -94.52020582 59.57587125 -104 77 C-104 77.66 -104 78.32 -104 79 C-103.50411377 79.25990723 -103.00822754 79.51981445 -102.49731445 79.78759766 C-65.71182158 99.20508583 -29.64227405 124.99325817 -5 159 C-3.83597656 160.58167969 -3.83597656 160.58167969 -2.6484375 162.1953125 C9.54203442 179.24521653 26 205.32752093 26 227 C23.26489917 225.69084023 20.769129 224.2455545 18.26953125 222.53125 C17.55804932 222.04769043 16.84656738 221.56413086 16.11352539 221.06591797 C15.35418701 220.54916504 14.59484863 220.03241211 13.8125 219.5 C5.0752087 213.62570109 -3.81849229 208.15029748 -13 203 C-14.05912598 202.40155273 -14.05912598 202.40155273 -15.13964844 201.79101562 C-36.35093485 189.9081028 -59.05364566 180.92381858 -82 173 C-81.60844727 173.90202148 -81.60844727 173.90202148 -81.20898438 174.82226562 C-62.52734176 218.10740254 -46.39629177 271.75694388 -61 319 C-61.66 319.66 -62.32 320.32 -63 321 C-63.40089844 319.94683594 -63.80179688 318.89367187 -64.21484375 317.80859375 C-70.05069082 302.85052492 -77.35077372 290.09381698 -88 278 C-88.73089844 277.14792969 -89.46179688 276.29585938 -90.21484375 275.41796875 C-97.36362748 267.23895608 -105.11374587 260.22472325 -114 254 C-113.94779297 255.61841797 -113.94779297 255.61841797 -113.89453125 257.26953125 C-113.29188495 284.09486232 -120.56754317 309.84809165 -132 334 C-132.35368652 334.74991211 -132.70737305 335.49982422 -133.07177734 336.27246094 C-142.21135178 355.30068852 -154.20694195 373.98629089 -168 390 C-168.33 390 -168.66 390 -169 390 C-169.10957031 389.27296875 -169.21914063 388.5459375 -169.33203125 387.796875 C-172.35032085 368.65650191 -179.02486821 352.02660924 -188 335 C-188.59296875 333.86046875 -189.1859375 332.7209375 -189.796875 331.546875 C-197.09671404 318.13264086 -206.34213128 305.4020583 -216.83984375 294.30078125 C-218.70308362 292.31624547 -220.47181693 290.28913505 -222.2421875 288.22265625 C-225.98923155 283.92555991 -230.01814558 280.00870381 -234.1875 276.125 C-235.29146118 275.09052734 -235.29146118 275.09052734 -236.41772461 274.03515625 C-242.42256797 268.44864835 -248.60061081 263.12937553 -255 258 C-252.65573591 255.6352441 -250.31275284 253.28707058 -247.859375 251.03515625 C-234.57826319 238.61485724 -224.4241509 219.37670172 -222.73046875 201.08984375 C-222.01185827 193.97080925 -222.01185827 193.97080925 -219.07421875 191.15234375 C-216.45058974 189.51623698 -213.83372013 188.23667037 -211 187 C-210.00613281 186.53851563 -209.01226563 186.07703125 -207.98828125 185.6015625 C-199.2754228 181.74157655 -191.52508641 179.65363322 -182 180 C-182 179.34 -182 178.68 -182 178 C-183.03125 177.90460938 -184.0625 177.80921875 -185.125 177.7109375 C-191.53354858 176.90846107 -197.74383852 175.18843735 -204 173.625 C-208.99702238 172.40441788 -213.99919682 171.20496922 -219 170 C-219.83756836 169.79487793 -220.67513672 169.58975586 -221.53808594 169.37841797 C-238.85608602 165.21520601 -256.76084214 165.85346014 -274 170 C-275.53091073 170.34525784 -277.06217993 170.68892888 -278.59375 171.03125 C-284.08173446 172.27834622 -289.54117671 173.63159932 -295 175 C-296.08522949 175.2690918 -297.17045898 175.53818359 -298.28857422 175.81542969 C-317.06541607 180.50897722 -335.3757977 186.22461347 -353.69140625 192.4609375 C-354.35781128 192.68771683 -355.02421631 192.91449615 -355.71081543 193.14814758 C-357.47750393 193.75497324 -359.23898029 194.37691474 -361 195 C-361.95269775 195.33668701 -362.90539551 195.67337402 -363.88696289 196.02026367 C-366.20026104 196.82732132 -366.20026104 196.82732132 -367.1171875 199.21484375 C-367.36726562 200.11332031 -367.61734375 201.01179687 -367.875 201.9375 C-371.86007236 214.16479028 -380.04070464 223.814934 -389.71484375 232.03515625 C-392.44604172 234.38351964 -395.10034135 236.81074665 -397.75 239.25 C-398.25571533 239.71462646 -398.76143066 240.17925293 -399.2824707 240.65795898 C-401.39489632 242.5997439 -403.50534989 244.54365311 -405.61425781 246.48925781 C-406.6840699 247.47612868 -407.75437792 248.46246222 -408.82519531 249.44824219 C-410.28817444 250.79506796 -411.74960521 252.14357506 -413.2109375 253.4921875 C-416.08341613 256.07500442 -419.01775348 258.54558472 -422 261 C-419.19504131 261 -416.99221227 260.64178571 -414.265625 260.046875 C-412.83234863 259.73907104 -412.83234863 259.73907104 -411.37011719 259.42504883 C-409.82565918 259.09089966 -409.82565918 259.09089966 -408.25 258.75 C-396.98621371 256.35571987 -385.69119651 254.29864079 -374.33349609 252.40673828 C-372.4610738 252.08036712 -370.59762005 251.70272904 -368.73828125 251.30859375 C-361.83364424 249.86718778 -354.90655914 249.69618185 -347.875 249.5625 C-346.35338257 249.51077637 -346.35338257 249.51077637 -344.80102539 249.45800781 C-335.29159721 249.40531971 -327.60414786 252.75439838 -320.640625 259.24609375 C-309.71935699 270.92144931 -303.42408012 287.59991019 -300 303 C-299.85191895 303.65919434 -299.70383789 304.31838867 -299.55126953 304.99755859 C-292.28095306 338.78222622 -297.13054431 375.69460988 -316 405 C-319.40218392 409.88987724 -323.15193133 414.45763148 -327 419 C-327.61617187 419.76828125 -328.23234375 420.5365625 -328.8671875 421.328125 C-333.55098692 427.02039798 -339.1618094 431.53314263 -345 436 C-345.46566879 436.45598068 -345.93133759 436.91196136 -346.41111755 437.38175964 C-349.02166096 439.70629868 -350.88662174 441.00880144 -354.45718384 440.98057556 C-357.46870787 440.42540868 -360.36787506 439.67909495 -363.31640625 438.8515625 C-365.00558922 438.41923813 -365.00558922 438.41923813 -366.72889709 437.97817993 C-369.83666531 437.17923241 -372.93606505 436.35355351 -376.03495026 435.52101135 C-379.37969591 434.63418879 -382.73648102 433.79594882 -386.09326172 432.95605469 C-391.79061368 431.52708707 -397.48425875 430.08466083 -403.17382812 428.625 C-403.89373617 428.4403355 -404.61364422 428.25567101 -405.35536766 428.06541061 C-408.2878327 427.31280166 -411.22011302 426.55947715 -414.15222168 425.80548096 C-446.35524393 417.2578653 -446.35524393 417.2578653 -479.25 412.375 C-494.69230928 411.02520398 -494.69230928 411.02520398 -500 409 C-504.09438163 404.05850493 -505.46911327 397.41950065 -505.23828125 391.08984375 C-504.00774519 380.29743731 -497.11755181 372.32582574 -490 364.5625 C-481.38539327 355.09664755 -475.44118974 346.00173781 -475.68359375 332.9765625 C-476.28097667 327.35673797 -478.36395703 323.5929892 -482.375 319.6875 C-492.33630228 313.28380568 -502.69707756 312.05862442 -514.26953125 311.47265625 C-515.07284378 311.43133072 -515.87615631 311.39000519 -516.70381165 311.34742737 C-528.69001952 310.77606097 -540.69065446 310.63627103 -552.6875 310.4375 C-555.15430221 310.39418292 -557.62109916 310.35056509 -560.08789062 310.30664062 C-566.05853767 310.20096795 -572.02923839 310.09897679 -578 310 C-576.06138055 305.55557443 -572.9576411 303.6407847 -569 301.0625 C-567.53901272 300.08535156 -566.07942879 299.10610235 -564.62109375 298.125 C-563.86038574 297.61453125 -563.09967773 297.1040625 -562.31591797 296.578125 C-558.50859981 293.98372224 -554.78681146 291.27411346 -551.0625 288.5625 C-543.12168481 282.79712222 -535.12270438 277.11966411 -527.09570312 271.47509766 C-524.32131544 269.52229589 -521.55125467 267.56340279 -518.78100586 265.60473633 C-496.69882038 249.99655834 -474.5564116 234.46244605 -452.20092773 219.24780273 C-451.12693726 218.51605835 -451.12693726 218.51605835 -450.03125 217.76953125 C-449.35449219 217.30885254 -448.67773438 216.84817383 -447.98046875 216.37353516 C-445.99217056 214.99456997 -444.04354655 213.56941719 -442.09375 212.13671875 C-439 210 -439 210 -437 210 C-438.93678818 206.24525204 -440.87574032 202.49163193 -442.81665039 198.73901367 C-443.47576602 197.4639263 -444.13430339 196.18853983 -444.79223633 194.9128418 C-445.74145768 193.07260267 -446.69279665 191.23347157 -447.64453125 189.39453125 C-448.21534424 188.28956299 -448.78615723 187.18459473 -449.37426758 186.04614258 C-450.92530552 182.99924065 -450.92530552 182.99924065 -452.8347168 180.3503418 C-454 178 -454 178 -453.46923828 175.98364258 C-451.64877875 173.52581045 -449.66170031 171.42033915 -447.4921875 169.26171875 C-446.58726562 168.35873047 -445.68234375 167.45574219 -444.75 166.52539062 C-444.04037109 165.82506714 -444.04037109 165.82506714 -443.31640625 165.1105957 C-441.89541817 163.70765879 -440.48279557 162.29626507 -439.0703125 160.88476562 C-434.40223618 156.24635929 -429.67359551 151.75007705 -424.68017578 147.46411133 C-422.51311194 145.57572396 -420.50090242 143.56246865 -418.5 141.5 C-415.14405776 138.10390119 -411.6992319 134.90199432 -408.07421875 131.796875 C-405.79842282 129.8253757 -403.59077333 127.78865605 -401.375 125.75 C-395.17439706 120.16378607 -388.62170457 115.07194392 -382 110 C-381.35724121 109.50564453 -380.71448242 109.01128906 -380.05224609 108.50195312 C-342.13190865 79.40878877 -300.24958504 58.26660481 -254 46 C-253.11731445 45.76297363 -252.23462891 45.52594727 -251.32519531 45.28173828 C-225.4444479 38.46871176 -197.95791863 35.78747884 -171.25 35.6875 C-170.47851624 35.68355225 -169.70703247 35.67960449 -168.91217041 35.67553711 C-153.26612105 35.63856876 -138.04515368 37.2809952 -122.59326172 39.6328125 C-120.10648006 40.04673152 -120.10648006 40.04673152 -118 40 C-116.75185669 38.59321977 -115.5769161 37.12120296 -114.4375 35.625 C-110.19081238 30.1858548 -105.69471501 25.05518672 -101 20 C-100.17435547 19.09314453 -100.17435547 19.09314453 -99.33203125 18.16796875 C-73.42917933 -9.14195167 -33.27506508 -21.98144741 0 0 Z " fill="#FEF3E2" transform="translate(734,166)"/>
<path d="M0 0 C15.80422737 8.57379335 30.57474385 23.1892508 42 37 C42.86496094 37.97710937 43.72992187 38.95421875 44.62109375 39.9609375 C57.98073785 55.07124747 69.03913135 71.4861882 79 89 C79.62648438 90.09610596 79.62648438 90.09610596 80.265625 91.21435547 C113.34620246 149.65581395 121.67564824 221.63231233 104.36328125 286.2421875 C95.70373284 317.36136145 82.96721364 345.4659672 63 371 C62.12555668 372.14265912 61.25188848 373.28591173 60.37890625 374.4296875 C42.99011121 397.07150969 18.98750936 423.33817229 -9 432 C-7.57376352 428.40820927 -6.10241316 424.83793477 -4.609375 421.2734375 C6.40081489 394.80032221 16.27836966 367.99295543 16.0625 339 C16.05573242 337.26556641 16.05573242 337.26556641 16.04882812 335.49609375 C16.03712529 332.66400775 16.02072996 329.83203189 16 327 C15.39414062 328.14855469 14.78828125 329.29710937 14.1640625 330.48046875 C6.92735788 343.98363432 -1.24018336 355.27467067 -11.7109375 366.5234375 C-13.64583216 368.61682183 -15.48576906 370.75082207 -17.3125 372.9375 C-22.39570182 378.76893013 -28.23809377 383.85642105 -34 389 C-34.54543457 389.49016602 -35.09086914 389.98033203 -35.65283203 390.48535156 C-50.8732776 404.09861278 -67.73041956 415.61167457 -84.47509766 427.24560547 C-104.52033175 441.17376754 -124.31162388 455.34206811 -143.67041016 470.21386719 C-145.69572219 471.76670547 -147.72656831 473.31165991 -149.76171875 474.8515625 C-156.31945221 479.82586435 -162.65085705 485.01292454 -168.8984375 490.3671875 C-171.63293092 492.70503651 -174.4331302 494.94932248 -177.25 497.1875 C-194.39277536 511.19531209 -210.62447969 527.34544671 -224 545 C-224.7734375 545.97839844 -225.546875 546.95679688 -226.34375 547.96484375 C-237.744971 562.4136518 -246.72052754 577.56218334 -255 594 C-268.85745867 588.97918164 -282.03206996 576.93850896 -292.734375 567.08203125 C-294.80892036 565.1755956 -296.92265931 563.3323439 -299.0625 561.5 C-306.3120037 555.15304495 -312.74722093 548.32571288 -318.7578125 540.796875 C-320.20395838 538.99297178 -321.67638093 537.20967676 -323.1796875 535.453125 C-358.52743265 493.94153817 -376.19284806 437.83936269 -372.5 383.75 C-372.34096008 381.83268542 -372.17761302 379.9156833 -372 378 C-369.32856077 380.67143923 -368.77105166 383.65229479 -367.75 387.1875 C-358.4922754 417.75656166 -341.78694376 442.85728405 -320 466 C-319.30519531 466.76054688 -318.61039062 467.52109375 -317.89453125 468.3046875 C-307.6800834 479.09209278 -295.02679124 487.4513744 -282.75 495.6875 C-281.85700195 496.28780029 -280.96400391 496.88810059 -280.04394531 497.5065918 C-279.19928711 498.06515869 -278.35462891 498.62372559 -277.484375 499.19921875 C-276.73897461 499.69252686 -275.99357422 500.18583496 -275.22558594 500.6940918 C-272.88567607 502.06708191 -270.5399425 503.05604205 -268 504 C-267.39414062 502.93523437 -266.78828125 501.87046875 -266.1640625 500.7734375 C-257.09929448 485.0010703 -246.60999458 470.97893904 -235 457 C-234.08460178 455.8867464 -233.16923536 454.77346667 -232.25390625 453.66015625 C-219.94275305 438.79937209 -206.29991462 425.11322589 -192.66455078 411.47924805 C-190.23311909 409.04560373 -187.80985377 406.60401138 -185.38671875 404.16210938 C-177.56878061 396.31581323 -169.79888641 388.74979174 -161 382 C-159.69798955 380.95235687 -158.39828508 379.9018374 -157.1015625 378.84765625 C-155.9434681 377.91832325 -154.78461694 376.98993249 -153.625 376.0625 C-152.99634033 375.55944336 -152.36768066 375.05638672 -151.7199707 374.53808594 C-147.04447395 370.80803021 -142.32014656 367.146165 -137.56958008 363.51245117 C-133.46292852 360.36810737 -129.41072759 357.16231836 -125.3828125 353.91796875 C-123.79934627 352.64340822 -122.2108116 351.37511804 -120.6171875 350.11328125 C-110.68820575 342.24352562 -101.04471101 334.07302446 -91.73046875 325.484375 C-89.57320823 323.52154568 -87.39267331 321.60317422 -85.1875 319.6953125 C-72.23782433 308.38316186 -60.92382129 296.03034646 -51 282 C-50.54544434 281.36352539 -50.09088867 280.72705078 -49.62255859 280.07128906 C-27.29485437 248.56815295 -16.43377242 212.96566882 -12 175 C-9.36725872 178.17939978 -7.0907576 181.33706932 -5.046875 184.921875 C-4.51408936 185.85572021 -3.98130371 186.78956543 -3.43237305 187.75170898 C8.61760354 209.2269321 17.01288066 230.36947817 24 254 C31.06521649 232.75424263 36.66556361 211.15732978 40 189 C40.11859375 188.21818359 40.2371875 187.43636719 40.359375 186.63085938 C49.25531968 124.20039047 35.70956701 56.40105581 0.91137695 3.60913086 C0 2 0 2 0 0 Z " fill="#F78924" transform="translate(763,290)"/>
<path d="M0 0 C1.49477806 0.17280464 2.98215945 0.41312874 4.4609375 0.69140625 C5.98799316 0.93044678 5.98799316 0.93044678 7.54589844 1.17431641 C11.32259492 1.80376582 15.07882344 2.51875906 18.8359375 3.25390625 C20.26647158 3.52938663 21.69705543 3.80460866 23.12768555 4.07958984 C26.85156353 4.79855754 30.5730009 5.52943462 34.29376221 6.26434326 C36.34743839 6.66904015 38.40183657 7.06980953 40.45654297 7.46923828 C59.69981415 11.22964065 78.80528954 15.54657041 97.8984375 20.00390625 C99.0480899 20.27052063 100.19774231 20.53713501 101.38223267 20.81182861 C104.65881528 21.57344519 107.93320895 22.34380241 111.20703125 23.1171875 C112.19917633 23.34713913 113.19132141 23.57709076 114.21353149 23.81401062 C115.12589569 24.03176651 116.03825989 24.2495224 116.97827148 24.47387695 C117.77506821 24.66150101 118.57186493 24.84912506 119.39280701 25.04243469 C121.4609375 25.69140625 121.4609375 25.69140625 124.4609375 27.69140625 C119.89253401 31.94493043 115.45977892 35.06791336 109.7734375 37.62890625 C108.68518677 38.12813599 108.68518677 38.12813599 107.57495117 38.63745117 C94.39116818 44.54057497 80.73293623 49.30968631 66.4609375 51.69140625 C65.3884375 51.87445312 64.3159375 52.0575 63.2109375 52.24609375 C51.0298897 53.69259318 38.1050661 53.82204514 26.4609375 49.69140625 C25.61789062 49.41296875 24.77484375 49.13453125 23.90625 48.84765625 C12.62003564 44.76914888 3.50863368 37.37420892 -5.5390625 29.69140625 C-6.23386719 29.13195312 -6.92867187 28.5725 -7.64453125 27.99609375 C-8.24910156 27.50367188 -8.85367188 27.01125 -9.4765625 26.50390625 C-9.98058594 26.09785156 -10.48460937 25.69179688 -11.00390625 25.2734375 C-13.22166106 22.98796499 -14.82641464 20.36580022 -16.5390625 17.69140625 C-14.58139131 14.82660903 -12.56679056 12.00694919 -10.5390625 9.19140625 C-9.98605469 8.38058594 -9.43304688 7.56976562 -8.86328125 6.734375 C-4.59631984 0.89795653 -4.59631984 0.89795653 0 0 Z " fill="#FDF2E2" transform="translate(238.5390625,590.30859375)"/>
<path d="M0 0 C1.22456909 -0.00300613 1.22456909 -0.00300613 2.47387695 -0.006073 C15.24745826 -0.01374717 27.56857002 0.74649692 40.125 3.25 C41.1253125 3.44722656 42.125625 3.64445313 43.15625 3.84765625 C44.13078125 4.04681641 44.13078125 4.04681641 45.125 4.25 C42.37104848 7.00395152 39.06483076 7.98037324 35.5 9.375 C14.50681797 17.84038769 -3.90120202 29.14846234 -21.62109375 43.22265625 C-22.2557959 43.72547119 -22.89049805 44.22828613 -23.54443359 44.74633789 C-24.78163002 45.72904266 -26.01520356 46.71633055 -27.24462891 47.70874023 C-29.78271378 49.73373025 -31.76726541 51.21408847 -34.875 52.25 C-39.70149796 36.48913499 -42.7864859 20.42031461 -45.875 4.25 C-43.27183978 3.76476849 -40.6676622 3.28676746 -38.0625 2.8125 C-37.34384766 2.67779297 -36.62519531 2.54308594 -35.88476562 2.40429688 C-23.95850554 0.25021466 -12.08297488 0.01442789 0 0 Z " fill="#F68A24" transform="translate(379.875,199.75)"/>
<path d="M0 0 C3.67670584 1.51052023 5.71874462 3.6488615 8.3125 6.625 C9.03050781 7.44226563 9.74851563 8.25953125 10.48828125 9.1015625 C11.83537713 10.65606505 13.1802181 12.21261424 14.51025391 13.78173828 C20.07370717 20.2737866 26.17607152 26.17580651 32.32421875 32.109375 C42.02914006 41.64564839 42.02914006 41.64564839 42.29296875 49.7421875 C42.27322431 51.45337225 42.23773485 53.16443882 42.1875 54.875 C42.16719727 56.19371094 42.16719727 56.19371094 42.14648438 57.5390625 C42.11136623 59.69297552 42.05756694 61.84657004 42 64 C24.0683564 49.19116905 5.33648675 28.32242358 0 5 C-0.1875 1.9375 -0.1875 1.9375 0 0 Z " fill="#FBF2E4" transform="translate(160,520)"/>
<path d="M0 0 C1.28132813 0.00902344 2.56265625 0.01804687 3.8828125 0.02734375 C5.36394531 0.04474609 5.36394531 0.04474609 6.875 0.0625 C6.65595812 9.42156216 4.01456105 16.92238975 -2.3125 23.9375 C-8.88380467 29.92815059 -16.41870323 31.78197295 -25.171875 31.4453125 C-36.39500216 29.99046268 -46.05122078 22.6394573 -53.125 14.0625 C-53.125 13.4025 -53.125 12.7425 -53.125 12.0625 C-50.485 11.7325 -47.845 11.4025 -45.125 11.0625 C-44.733125 11.825625 -44.34125 12.58875 -43.9375 13.375 C-41.35188289 17.20884606 -39.19713894 18.6396145 -34.63671875 19.5703125 C-28.5626514 20.36002527 -23.4083622 20.42253298 -18.125 17.0625 C-13.41858703 13.10483454 -11.31956237 8.75988334 -9.765625 2.8828125 C-8.3001555 -1.28126548 -3.7064457 -0.03369496 0 0 Z " fill="#FAF1E3" transform="translate(465.125,368.9375)"/>
<path d="M0 0 C1.58357459 0.31127516 3.16684993 0.62407289 4.75 0.9375 C5.63171875 1.11152344 6.5134375 1.28554688 7.421875 1.46484375 C9.63235053 1.92368488 11.81512068 2.43336074 14 3 C14 3.66 14 4.32 14 5 C9.38 5.66 4.76 6.32 0 7 C0.33 6.01 0.66 5.02 1 4 C0.61067144 1.85744207 0.61067144 1.85744207 0 0 Z " fill="#191716" transform="translate(538,341)"/>
<path d="M0 0 C1.48320272 3.83887763 2.22419163 6.06204091 1 10 C0.60167969 9.57847656 0.20335937 9.15695312 -0.20703125 8.72265625 C-0.73683594 8.17480469 -1.26664062 7.62695312 -1.8125 7.0625 C-2.33457031 6.51722656 -2.85664063 5.97195313 -3.39453125 5.41015625 C-5.05812198 3.76480908 -5.05812198 3.76480908 -8 3 C-8 2.34 -8 1.68 -8 1 C-5.07175348 0.02391783 -3.04386724 -0.08226668 0 0 Z " fill="#F0E7DA" transform="translate(420,380)"/>
<path d="M0 0 C0.66 0.66 1.32 1.32 2 2 C-0.43915537 4.43915537 -5.74004191 3.93607925 -9 4 C-12.07528005 3.55809759 -15.01953706 2.87110149 -18 2 C-18 1.67 -18 1.34 -18 1 C-4.98368679 -0.31810767 -4.98368679 -0.31810767 0 0 Z " fill="#DD8322" transform="translate(369,200)"/>
<path d="M0 0 C0.33 0.99 0.66 1.98 1 3 C10.9 3 20.8 3 31 3 C31 3.33 31 3.66 31 4 C20.11 4 9.22 4 -2 4 C-2.33 3.34 -2.66 2.68 -3 2 C-2.01 1.34 -1.02 0.68 0 0 Z " fill="#F5EAD9" transform="translate(161,470)"/>
<path d="M0 0 C6.28199181 3.27756095 11.55515231 7.48636368 17 12 C16.01 12.495 16.01 12.495 15 13 C12.03 10.69 9.06 8.38 6 6 C5.01 7.485 5.01 7.485 4 9 C0 2.25 0 2.25 0 0 Z " fill="#E59226" transform="translate(763,290)"/>
<path d="M0 0 C0 3.58912412 -0.66436554 4.10857029 -3 6.6875 C-3.556875 7.31011719 -4.11375 7.93273437 -4.6875 8.57421875 C-5.120625 9.04472656 -5.55375 9.51523437 -6 10 C-6.78953402 7.31672858 -7.02604476 6.11199248 -6.375 3.3125 C-5 1 -5 1 -2.375 0.1875 C-1.59125 0.125625 -0.8075 0.06375 0 0 Z " fill="#F8F3EC" transform="translate(742,268)"/>
<path d="M0 0 C0.33 0 0.66 0 1 0 C1 8.25 1 16.5 1 25 C0.34 25 -0.32 25 -1 25 C-0.505 16.09 -0.505 16.09 0 7 C-0.66 7 -1.32 7 -2 7 C-1.34 4.69 -0.68 2.38 0 0 Z " fill="#020107" transform="translate(779,614)"/>
<path d="M0 0 C4.16138263 -0.08159574 7.9472484 0.01751476 12 1 C9.96180154 3.03819846 8.70582202 3.67841059 6.0625 4.6875 C5.37285156 4.95949219 4.68320312 5.23148438 3.97265625 5.51171875 C2 6 2 6 -1 5 C0.32 4.34 1.64 3.68 3 3 C2.01 2.67 1.02 2.34 0 2 C0 1.34 0 0.68 0 0 Z " fill="#F29727" transform="translate(413,203)"/>
<path d="M0 0 C0.99 0.66 1.98 1.32 3 2 C2.67 3.65 2.34 5.3 2 7 C0.02 7.66 -1.96 8.32 -4 9 C-2.80100302 5.9168649 -1.52299523 2.93720508 0 0 Z " fill="#F19527" transform="translate(758,713)"/>
<path d="M0 0 C1.33804687 0.04060547 1.33804687 0.04060547 2.703125 0.08203125 C3.37859375 0.11683594 4.0540625 0.15164063 4.75 0.1875 C4.42 0.8475 4.09 1.5075 3.75 2.1875 C1.58532539 2.81419199 -0.60864524 3.34177374 -2.8125 3.8125 C-4.01003906 4.07289063 -5.20757812 4.33328125 -6.44140625 4.6015625 C-7.36824219 4.79492188 -8.29507812 4.98828125 -9.25 5.1875 C-9.25 4.5275 -9.25 3.8675 -9.25 3.1875 C-6.22899041 0.27236692 -4.12886187 -0.16298139 0 0 Z " fill="#141211" transform="translate(319.25,423.8125)"/>
<path d="M0 0 C2.57146057 2.57146057 2.80117997 4.6050417 3.625 8.125 C3.88539063 9.22070312 4.14578125 10.31640625 4.4140625 11.4453125 C4.70410156 12.70988281 4.70410156 12.70988281 5 14 C4.34 14 3.68 14 3 14 C2.67 12.35 2.34 10.7 2 9 C1.34 9 0.68 9 0 9 C0 6.03 0 3.06 0 0 Z " fill="#EA9527" transform="translate(391,668)"/>
<path d="M0 0 C3.91939465 3.80411834 7.49102731 7.81576108 11 12 C7.23254152 11.44988438 5.69390636 9.97622408 3.25 7.125 C2.63640625 6.42632813 2.0228125 5.72765625 1.390625 5.0078125 C0 3 0 3 0 0 Z " fill="#1C1A18" transform="translate(179,560)"/>
<path d="M0 0 C1.88391785 3.26545761 2.49287967 6.28111761 3 10 C-0.36591866 8.55746343 -2.51047079 6.66735273 -5 4 C-2.525 4.99 -2.525 4.99 0 6 C0 4.02 0 2.04 0 0 Z " fill="#EAE8E3" transform="translate(757,383)"/>
<path d="M0 0 C0.99 0.33 1.98 0.66 3 1 C0.03 3.64 -2.94 6.28 -6 9 C-6.66 8.67 -7.32 8.34 -8 8 C-5.36 5.36 -2.72 2.72 0 0 Z " fill="#1D120C" transform="translate(564,806)"/>
<path d="M0 0 C-0.99 0.33 -1.98 0.66 -3 1 C-3 1.66 -3 2.32 -3 3 C-7.21015871 3.95685425 -9.25712373 4.13181214 -13 2 C-11.21089097 1.47044766 -9.41860852 0.9516063 -7.625 0.4375 C-6.62726563 0.14746094 -5.62953125 -0.14257812 -4.6015625 -0.44140625 C-2 -1 -2 -1 0 0 Z " fill="#1B1918" transform="translate(448,339)"/>
<path d="M0 0 C2.97 0.33 5.94 0.66 9 1 C9 1.99 9 2.98 9 4 C6.03 3.67 3.06 3.34 0 3 C0 2.01 0 1.02 0 0 Z " fill="#EEE6DB" transform="translate(257,594)"/>
<path d="M0 0 C0.33 0.66 0.66 1.32 1 2 C0.34 1.67 -0.32 1.34 -1 1 C-0.67 0.67 -0.34 0.34 0 0 Z M-1 2 C-2.0975223 4.99324263 -2.67682892 5.84610901 -5.625 7.25 C-6.40875 7.4975 -7.1925 7.745 -8 8 C-6.52522876 4.59668175 -5.14385429 2 -1 2 Z " fill="#F4EFE6" transform="translate(243,412)"/>
<path d="M0 0 C2.56687367 3.8503105 1.83288724 5.58569763 1 10 C0.34 10 -0.32 10 -1 10 C-1.33 10.99 -1.66 11.98 -2 13 C-3.45047396 10.09905209 -2.45356803 8.44027404 -1.5625 5.375 C-1.27503906 4.37210937 -0.98757813 3.36921875 -0.69140625 2.3359375 C-0.46324219 1.56507813 -0.23507812 0.79421875 0 0 Z " fill="#1E1C1B" transform="translate(472,370)"/>
<path d="M0 0 C0.33 0.66 0.66 1.32 1 2 C-3.82142857 8.29464286 -3.82142857 8.29464286 -8 9 C-7.04270084 7.87411986 -6.08412105 6.7493285 -5.125 5.625 C-4.59132813 4.99851562 -4.05765625 4.37203125 -3.5078125 3.7265625 C-2.38567993 2.44163349 -1.20628025 1.20628025 0 0 Z " fill="#EBE6DD" transform="translate(303,319)"/>
<path d="M0 0 C0.33 0.66 0.66 1.32 1 2 C0.0625 4.125 0.0625 4.125 -1 6 C-4.37503669 4.8141763 -6.64722731 3.72426311 -9 1 C-6.69 1.66 -4.38 2.32 -2 3 C-1.34 2.01 -0.68 1.02 0 0 Z " fill="#F29625" transform="translate(497,791)"/>
<path d="M0 0 C0 3.10551666 -0.5393715 4.35261084 -2 7 C-2.66 7 -3.32 7 -4 7 C-4.33 7.99 -4.66 8.98 -5 10 C-5.66 9.67 -6.32 9.34 -7 9 C-4.69 6.03 -2.38 3.06 0 0 Z " fill="#F89A27" transform="translate(716,567)"/>
<path d="M0 0 C3.16115776 1.36983503 3.9927092 1.9890638 6 5 C5.01 4.67 4.02 4.34 3 4 C2.34 4.99 1.68 5.98 1 7 C0.67 4.69 0.34 2.38 0 0 Z " fill="#F9F6F0" transform="translate(160,520)"/>
<path d="M0 0 C0.66 0.66 1.32 1.32 2 2 C-2.625 6 -2.625 6 -6 6 C-6 5.34 -6 4.68 -6 4 C-4.03852126 2.61061923 -2.03833424 1.2739589 0 0 Z " fill="#F1ECE4" transform="translate(216,431)"/>
<path d="M0 0 C0.99 0.33 1.98 0.66 3 1 C3 3.64 3 6.28 3 9 C2.01 8.67 1.02 8.34 0 8 C0 5.36 0 2.72 0 0 Z " fill="#35322F" transform="translate(620,420)"/>
<path d="M0 0 C0 0.66 0 1.32 0 2 C-6.28571429 4.42857143 -6.28571429 4.42857143 -10 3 C-6.71687741 1.24118433 -3.76143005 0 0 0 Z " fill="#1B1917" transform="translate(433,342)"/>
<path d="M0 0 C0.66 0.33 1.32 0.66 2 1 C0.9024777 3.99324263 0.32317108 4.84610901 -2.625 6.25 C-3.40875 6.4975 -4.1925 6.745 -5 7 C-3.35 4.69 -1.7 2.38 0 0 Z " fill="#EEE7DE" transform="translate(250,523)"/>
<path d="M0 0 C2.475 0.99 2.475 0.99 5 2 C4.67 2.66 4.34 3.32 4 4 C3.34 4 2.68 4 2 4 C1.67 4.99 1.34 5.98 1 7 C0.34 6.67 -0.32 6.34 -1 6 C-0.67 4.02 -0.34 2.04 0 0 Z " fill="#F1E7D9" transform="translate(162,523)"/>
<path d="M0 0 C0.99 0.33 1.98 0.66 3 1 C3.33 3.31 3.66 5.62 4 8 C3.34 8 2.68 8 2 8 C0.74335022 5.09399739 0 3.20395416 0 0 Z " fill="#1D110B" transform="translate(797,376)"/>
<path d="M0 0 C0.99 0 1.98 0 3 0 C2.34 2.97 1.68 5.94 1 9 C-1 6 -1 6 -0.625 2.8125 C-0.41875 1.884375 -0.2125 0.95625 0 0 Z " fill="#141311" transform="translate(737,259)"/>
</svg>
