<?xml version="1.0" encoding="UTF-8"?>
<svg version="1.1" xmlns="http://www.w3.org/2000/svg" width="1024" height="1024">
<path d="M0 0 C1.73982803 1.3404414 3.47008154 2.69346437 5.1875 4.0625 C6.17556641 4.80306641 6.17556641 4.80306641 7.18359375 5.55859375 C17.69406591 13.82183801 24.99206547 28.01209284 27.1875 41.0625 C28.6170129 56.36342816 27.4198217 70.00965512 21.1875 84.0625 C20.71957031 85.16722656 20.25164063 86.27195312 19.76953125 87.41015625 C16.24974567 95.05114736 11.40947609 101.52078814 6.1875 108.0625 C5.12402344 109.47208984 5.12402344 109.47208984 4.0390625 110.91015625 C3.42804687 111.62042969 2.81703125 112.33070313 2.1875 113.0625 C1.5275 113.0625 0.8675 113.0625 0.1875 113.0625 C0.61076804 111.36942784 1.03410682 109.67637335 1.45776367 107.98339844 C1.82243067 106.52341691 2.18585381 105.06312419 2.5480957 103.60253906 C3.36627604 100.30960683 4.19768934 97.02493235 5.0859375 93.75 C6.94128424 86.84296659 7.86550581 80.20491667 8.1875 73.0625 C8.24035156 72.24265625 8.29320312 71.4228125 8.34765625 70.578125 C8.8812127 56.38088387 4.17579777 42.06434253 -4.8125 31.0625 C-12.78711618 23.47565585 -22.71452179 19.63352887 -33.62890625 19.79296875 C-54.63769172 21.57162666 -72.34895617 35.94900045 -85.66015625 51.3671875 C-92.40040718 59.80779212 -98.4840258 68.66185852 -103.8125 78.0625 C-102.06358911 79.1475907 -100.31324955 80.23037842 -98.5625 81.3125 C-97.99039795 81.66675049 -97.4182959 82.02100098 -96.82885742 82.38598633 C-93.28639601 84.56992423 -89.72242671 86.70962614 -86.12890625 88.80859375 C-70.44283308 98.0033438 -55.6055017 108.18891277 -41.8125 120.0625 C-41.05710937 120.70703125 -40.30171875 121.3515625 -39.5234375 122.015625 C-36.90209962 124.31258327 -34.34375146 126.66740582 -31.8125 129.0625 C-31.19068848 129.6503125 -30.56887695 130.238125 -29.92822266 130.84375 C-19.43341563 140.84967621 -10.21477155 151.25002955 -1.8125 163.0625 C-1.36326172 163.67770508 -0.91402344 164.29291016 -0.45117188 164.92675781 C12.37256629 182.53789748 23.79889757 205.18172217 26.1875 227.0625 C22.43323713 225.72691268 19.64285311 224.0593194 16.5 221.625 C-4.79958359 205.92464644 -29.02381824 194.05561979 -53.375 183.875 C-54.01545258 183.60673401 -54.65590515 183.33846802 -55.31576538 183.06207275 C-63.37401558 179.70525921 -71.49049267 176.69833006 -79.8125 174.0625 C-80.1425 174.3925 -80.4725 174.7225 -80.8125 175.0625 C-80.51069824 175.78091064 -80.20889648 176.49932129 -79.89794922 177.23950195 C-70.71761658 199.18235193 -63.22113991 220.61271527 -58.8125 244.0625 C-58.62413574 245.02720215 -58.43577148 245.9919043 -58.24169922 246.98583984 C-56.53752229 256.63065884 -56.41846087 266.17418897 -56.4375 275.9375 C-56.43671448 276.79168518 -56.43592896 277.64587036 -56.43511963 278.52593994 C-56.45022459 292.25506005 -57.02594048 305.76808299 -60.8125 319.0625 C-61.8025 319.5575 -61.8025 319.5575 -62.8125 320.0625 C-63.08288086 319.4547876 -63.35326172 318.8470752 -63.63183594 318.22094727 C-75.26361573 292.34194348 -89.95902883 273.00432914 -111.8125 255.0625 C-111.96283691 256.33758423 -111.96283691 256.33758423 -112.11621094 257.63842773 C-116.0565156 290.64629734 -116.0565156 290.64629734 -119.8125 303.0625 C-120.03212402 303.79807129 -120.25174805 304.53364258 -120.47802734 305.29150391 C-128.44918902 331.29897048 -145.19102495 374.31484997 -168.8125 390.0625 C-169.02003906 388.83917969 -169.22757813 387.61585938 -169.44140625 386.35546875 C-175.79473962 350.83941032 -193.91624703 319.18154166 -218.34375 292.875 C-219.8125 291.0625 -219.8125 291.0625 -219.8125 289.0625 C-220.4725 289.0625 -221.1325 289.0625 -221.8125 289.0625 C-223.1171875 287.69921875 -223.1171875 287.69921875 -224.6875 285.75 C-233.21422938 275.74342502 -243.74407292 267.45826904 -253.8125 259.0625 C-253.30548572 254.99733195 -251.42495777 253.62745447 -248.3125 251.125 C-233.00594173 237.73994976 -224.56620218 217.38686653 -222.125 197.5 C-221.37271945 193.76942842 -220.30894808 192.09206092 -217.25 189.8125 C-207.7272176 184.39728287 -196.52860553 180.90074972 -185.71875 179.38671875 C-183.80801462 179.25085878 -183.80801462 179.25085878 -182.8125 178.0625 C-183.80797852 177.93415771 -184.80345703 177.80581543 -185.82910156 177.67358398 C-189.79033724 177.10610499 -193.66064982 176.22949955 -197.546875 175.28515625 C-198.26554749 175.11374619 -198.98421997 174.94233612 -199.72467041 174.76573181 C-202.00467463 174.22180914 -204.28368891 173.67389834 -206.5625 173.125 C-231.20662599 167.19107897 -252.89386176 164.83479148 -277.8125 171.0625 C-279.06579102 171.36865234 -280.31908203 171.67480469 -281.61035156 171.99023438 C-306.1832954 178.00467299 -330.55158795 184.75525467 -354.5 192.9375 C-355.3139624 193.21158691 -356.1279248 193.48567383 -356.96655273 193.76806641 C-362.59575409 195.75136731 -364.86695378 197.21543521 -367.57421875 202.50390625 C-368.21727474 203.87707606 -368.8591411 205.25080343 -369.5 206.625 C-377.17140076 222.34654954 -389.83883759 233.15908627 -402.921875 244.421875 C-406.06598499 247.15023491 -409.13901985 249.95759704 -412.22265625 252.75390625 C-414.28863999 254.59552977 -416.37152913 256.4078495 -418.47436523 258.20678711 C-419.10068344 258.74283066 -419.72700165 259.27887421 -420.37229919 259.8311615 C-420.84756546 260.2375032 -421.32283173 260.64384491 -421.8125 261.0625 C-420.5248877 260.80557373 -419.23727539 260.54864746 -417.91064453 260.28393555 C-341.41970641 245.07607476 -341.41970641 245.07607476 -328.73828125 252.65234375 C-309.26703217 266.91019551 -301.92404083 289.10922866 -297.8125 312.0625 C-292.6494226 345.52224916 -298.20328797 380.74459725 -318.28833008 408.66699219 C-320.70816872 411.87483851 -323.23171859 414.98337905 -325.8125 418.0625 C-326.63492188 419.06667969 -327.45734375 420.07085938 -328.3046875 421.10546875 C-332.83586006 426.37202834 -337.76602412 430.87263394 -343.1875 435.1875 C-343.78288574 435.6616333 -344.37827148 436.1357666 -344.99169922 436.62426758 C-347.88769461 438.84952049 -350.17520981 440.57361966 -353.8125 441.0625 C-356.5189209 440.63589478 -356.5189209 440.63589478 -359.66210938 439.85009766 C-360.84816772 439.55844223 -362.03422607 439.2667868 -363.25622559 438.96629333 C-364.55628264 438.63657588 -365.85628936 438.30665987 -367.15625 437.9765625 C-368.51041964 437.63986344 -369.86479424 437.30398778 -371.21936035 436.96888733 C-374.83892755 436.07106384 -378.45555509 435.16188618 -382.07177734 434.25069809 C-385.80126175 433.31330475 -389.53357195 432.38730806 -393.265625 431.46020508 C-405.69499358 428.36906757 -418.11555276 425.24324884 -430.53125 422.09765625 C-432.16079952 421.68600438 -433.7903564 421.27438167 -435.41992188 420.86279297 C-438.22030707 420.15525772 -441.01818422 419.43894626 -443.81445312 418.71533203 C-456.70747741 415.43496772 -469.66053205 412.98233018 -482.9375 412 C-497.8620481 410.87843798 -497.8620481 410.87843798 -501.625 407.375 C-505.47748129 399.87279959 -505.77055736 392.26923441 -503.875 384.1875 C-501.35606587 376.56007329 -495.49815713 371.06700227 -490.24609375 365.19140625 C-482.8380114 356.67493906 -475.58338801 347.42814764 -475.125 335.6875 C-475.5783982 329.37351024 -476.94339712 324.67564557 -481.6953125 320.34765625 C-491.03459261 313.50219825 -502.67039459 312.09387211 -513.95703125 311.53515625 C-514.76936722 311.49383072 -515.58170319 311.45250519 -516.4186554 311.40992737 C-528.43765094 310.84294436 -540.47057719 310.69931079 -552.5 310.5 C-554.96680221 310.45668292 -557.43359916 310.41306509 -559.90039062 310.36914062 C-565.87103767 310.26346795 -571.84173839 310.16147679 -577.8125 310.0625 C-576.37408 307.01974909 -575.29154738 305.37817346 -572.49609375 303.46875 C-571.82328369 303.00218994 -571.15047363 302.53562988 -570.45727539 302.05493164 C-569.72887451 301.5624292 -569.00047363 301.06992676 -568.25 300.5625 C-566.69517961 299.4884736 -565.14049582 298.41424944 -563.5859375 297.33984375 C-562.79026367 296.79440918 -561.99458984 296.24897461 -561.17480469 295.68701172 C-557.5534125 293.19664963 -553.96376161 290.66205742 -550.375 288.125 C-549.67536133 287.63177246 -548.97572266 287.13854492 -548.25488281 286.63037109 C-543.14215585 283.0206317 -538.06649473 279.36174746 -533 275.6875 C-524.19143636 269.30351333 -515.28702378 263.0619515 -506.36230469 256.84179688 C-503.79358974 255.0493041 -501.22827086 253.25205768 -498.6640625 251.453125 C-490.50864856 245.73211652 -482.34106403 240.03141746 -474.12255859 234.40136719 C-466.95626144 229.48723214 -459.83026034 224.51520331 -452.70385742 219.54345703 C-450.0763495 217.71218419 -447.44514082 215.88638235 -444.8125 214.0625 C-443.8519873 213.38936768 -443.8519873 213.38936768 -442.87207031 212.70263672 C-439.0421923 210.0625 -439.0421923 210.0625 -436.8125 210.0625 C-438.70628354 206.41559847 -440.60290513 202.77017994 -442.5 199.125 C-443.29567383 197.59262695 -443.29567383 197.59262695 -444.10742188 196.02929688 C-444.89536133 194.51625977 -444.89536133 194.51625977 -445.69921875 192.97265625 C-446.21661621 191.97379395 -446.73401367 190.97493164 -447.26708984 189.94580078 C-449.08967309 186.54537296 -451.07329732 183.25770872 -453.13598633 179.99780273 C-453.8125 178.0625 -453.8125 178.0625 -453.3137207 176.20458984 C-451.12421707 173.08039 -448.47821006 170.46406087 -445.7734375 167.79296875 C-445.17375153 167.193741 -444.57406555 166.59451324 -443.95620728 165.97712708 C-442.68589709 164.70983463 -441.4131607 163.44497017 -440.13818359 162.18237305 C-438.2101141 160.27240182 -436.29000968 158.35470964 -434.37109375 156.43554688 C-428.88758139 150.96806126 -423.41418292 145.54045573 -417.51269531 140.51977539 C-414.58310942 138.00876187 -411.80637349 135.33429618 -409 132.6875 C-403.13780804 127.20845784 -397.09126322 122.06162398 -390.8125 117.0625 C-389.70718549 116.15504215 -388.60308258 115.24610713 -387.5 114.3359375 C-365.27033318 96.097777 -340.86951266 80.26379958 -314.8125 68.0625 C-313.84054687 67.58167969 -312.86859375 67.10085937 -311.8671875 66.60546875 C-282.76571597 52.52035653 -251.64244194 44.116893 -219.8125 39.0625 C-218.85682129 38.89878906 -217.90114258 38.73507813 -216.91650391 38.56640625 C-192.46516296 34.44362311 -165.46494456 33.76298383 -140.88671875 37.28125 C-139.73872299 37.44354347 -139.73872299 37.44354347 -138.5675354 37.6091156 C-134.99917297 38.13145455 -131.46245542 38.72454797 -127.92578125 39.42993164 C-124.37219609 40.03181551 -121.39266762 40.48594792 -117.8125 40.0625 C-114.55304119 37.56326686 -112.80440957 34.60648032 -110.8125 31.0625 C-107.90916021 27.63665763 -104.8770522 24.34450392 -101.8125 21.0625 C-101.05195312 20.23621094 -100.29140625 19.40992188 -99.5078125 18.55859375 C-74.00200333 -8.15978668 -32.8115494 -23.39217944 0 0 Z " fill="#FEF3E2" transform="translate(733.8125,165.9375)"/>
<path d="M0 0 C10.36767363 4.82384815 18.85647343 13.14196078 27 21 C27.91434814 21.88147705 27.91434814 21.88147705 28.84716797 22.78076172 C36.76859652 30.46172191 44.25125717 38.24929801 51 47 C51.7734375 47.96808594 52.546875 48.93617188 53.34375 49.93359375 C73.85522185 75.92993703 90.1200785 105.35425523 100 137 C100.26119629 137.82113281 100.52239258 138.64226562 100.79150391 139.48828125 C121.06139137 203.89118497 116.93402717 276.53773572 85.625 336.875 C80.96028164 345.63525401 75.79185511 353.94491062 70 362 C69.28457031 362.99773437 68.56914063 363.99546875 67.83203125 365.0234375 C65.60126546 368.05467845 63.31547285 371.0329553 61 374 C60.53255371 374.60424805 60.06510742 375.20849609 59.58349609 375.83105469 C41.27083499 399.39875636 19.32393738 419.49075992 -8 432 C-8.33 431.34 -8.66 430.68 -9 430 C-8.33837891 428.09008789 -8.33837891 428.09008789 -7.2265625 425.72265625 C-6.81817139 424.83054443 -6.40978027 423.93843262 -5.98901367 423.01928711 C-5.53888916 422.04354736 -5.08876465 421.06780762 -4.625 420.0625 C4.28210292 400.12530046 10.94070772 379.46581432 15 358 C15.18103271 357.04311279 15.36206543 356.08622559 15.54858398 355.1003418 C16.00048833 351.99664613 16.11381231 349.07958906 16.09765625 345.9453125 C16.09282227 344.28242187 16.09282227 344.28242187 16.08789062 342.5859375 C16.07951172 341.44382812 16.07113281 340.30171875 16.0625 339.125 C16.05573242 337.37703125 16.05573242 337.37703125 16.04882812 335.59375 C16.03708781 332.72911355 16.0206657 329.86458367 16 327 C15.63213379 327.78745605 15.26426758 328.57491211 14.88525391 329.38623047 C3.40532993 353.69790409 -17.26525364 376.0475144 -38.1796875 392.73828125 C-41.00210487 395.00168798 -43.74863568 397.33849398 -46.5 399.6875 C-59.16290115 410.24264083 -72.74870362 419.6030989 -86.37890625 428.8515625 C-93.65959934 433.79665185 -100.83449552 438.89002441 -108 444 C-108.70946777 444.50466797 -109.41893555 445.00933594 -110.14990234 445.52929688 C-122.6354566 454.42311635 -134.86258844 463.63763755 -147 473 C-147.68642578 473.52899902 -148.37285156 474.05799805 -149.08007812 474.60302734 C-156.95424362 480.68632494 -164.6088843 486.98014499 -172.15844727 493.46166992 C-173.52314732 494.60166396 -174.91012404 495.71510434 -176.30834961 496.8137207 C-184.13899026 503.0160289 -191.17346874 509.86733837 -198.20776367 516.94702148 C-200.18773942 518.93774071 -202.17821705 520.91750766 -204.16992188 522.89648438 C-210.90082596 529.61998251 -217.27350707 536.38046633 -223 544 C-223.86970051 545.09979305 -224.74177792 546.19771454 -225.6171875 547.29296875 C-237.09374102 562.00598979 -246.27212486 577.50924265 -255 594 C-259.32080968 593.09664358 -262.52242544 590.88961571 -266.125 588.4375 C-266.79515137 587.9849585 -267.46530273 587.53241699 -268.15576172 587.06616211 C-273.66685825 583.30534534 -278.88599316 579.28579504 -284 575 C-285.38445312 573.89205078 -285.38445312 573.89205078 -286.796875 572.76171875 C-301.56403793 560.71186372 -315.63402672 547.09733356 -326.82177734 531.62255859 C-328.01016421 529.98600262 -329.23017469 528.37738712 -330.45703125 526.76953125 C-361.74138748 485.15560908 -378.8210215 430.00346795 -372 378 C-370 379 -370 379 -369.140625 381.37890625 C-368.84671875 382.42949219 -368.5528125 383.48007812 -368.25 384.5625 C-359.95357317 412.34798766 -346.15359926 436.30621303 -327 458 C-326.278125 458.84433594 -325.55625 459.68867187 -324.8125 460.55859375 C-321.22965429 464.70825685 -317.54234882 468.51916753 -313.33618164 472.0390625 C-311.71631807 473.39873897 -310.10961559 474.77419029 -308.51367188 476.16186523 C-300.51949664 483.01710792 -292.05590374 488.86680427 -283.25 494.625 C-281.85893902 495.54230795 -280.46831153 496.4602736 -279.078125 497.37890625 C-275.7236757 499.59351643 -272.36356747 501.79926586 -269 504 C-268.62302979 503.39639648 -268.24605957 502.79279297 -267.85766602 502.17089844 C-258.99128479 488.00952352 -249.89753843 474.56351976 -239.22265625 461.69140625 C-237.79594746 459.96380984 -236.38549447 458.22258462 -234.99609375 456.46484375 C-228.46018857 448.24225336 -221.23835114 440.71563201 -214.00048828 433.11376953 C-212.17165526 431.18137555 -210.36037833 429.23493559 -208.55859375 427.27734375 C-195.49843426 413.08905138 -182.26951482 398.83454488 -167 387 C-165.72030295 385.88509291 -164.44918362 384.76025186 -163.1875 383.625 C-157.93921144 378.98598323 -152.37168793 374.7402191 -146.84667969 370.43945312 C-143.30571122 367.6793328 -139.77940598 364.90051822 -136.25146484 362.1237793 C-133.34149387 359.83482387 -130.42662017 357.55279694 -127.5 355.28515625 C-119.72594598 349.2474667 -112.19897674 342.97859461 -104.76757812 336.52490234 C-102.97549085 334.97885578 -101.16988737 333.45019393 -99.359375 331.92578125 C-93.04010306 326.5930982 -87.0043886 321.15495085 -81.2265625 315.2265625 C-79.22250592 313.22250592 -77.16792527 311.38493917 -75 309.5625 C-36.72625047 276.39699991 -17.85481101 223.84144974 -12 175 C-7.20884323 179.46176069 -4.46815898 184.76096544 -1.3125 190.4375 C-0.69181641 191.55261963 -0.07113281 192.66773926 0.56835938 193.81665039 C11.05585617 212.96068821 18.38028696 232.9564858 24 254 C31.66368549 228.54373709 38.15106363 203.51374615 41 177 C41.13277344 175.81019531 41.26554687 174.62039063 41.40234375 173.39453125 C44.70036367 137.02595545 41.02306266 98.52849125 29 64 C28.71817871 63.18080078 28.43635742 62.36160156 28.14599609 61.51757812 C21.48639508 42.43971505 12.90248079 23.86185754 2.42578125 6.57421875 C1.17440009 4.31487578 0.44950962 2.52324733 0 0 Z " fill="#F88824" transform="translate(763,290)"/>
<path d="M0 0 C12.58769759 0.91480015 25.09152401 3.82953731 37.4375 6.3125 C38.4956189 6.52398682 39.55373779 6.73547363 40.6439209 6.95336914 C59.08649988 10.65190323 77.43051667 14.73865128 95.75 19 C96.9765329 19.2848526 98.2030658 19.5697052 99.46676636 19.8631897 C102.95289521 20.67505122 106.43770846 21.49226158 109.921875 22.3125 C110.9571785 22.55481857 111.99248199 22.79713715 113.05915833 23.04679871 C117.78959403 24.16988531 122.4190359 25.34829394 127 27 C123.91128218 31.47628902 120.37742091 33.86738581 115.625 36.3125 C114.5263562 36.88508545 114.5263562 36.88508545 113.40551758 37.46923828 C94.36498847 47.06774073 74.16418272 53.14802181 52.8125 53.25 C51.75224609 53.270625 50.69199219 53.29125 49.59960938 53.3125 C39.05969676 53.36388288 29.43458418 51.30678824 20.0625 46.4375 C19.05473511 45.92195557 19.05473511 45.92195557 18.02661133 45.39599609 C11.06246598 41.7036245 4.97371377 37.11328672 -1 32 C-1.53625 31.54206055 -2.0725 31.08412109 -2.625 30.61230469 C-9.0646567 25.05887478 -9.0646567 25.05887478 -12 22 C-12 21.34 -12 20.68 -12 20 C-12.66 20 -13.32 20 -14 20 C-12.44553627 15.122521 -9.60965254 11.6654354 -6.4375 7.75 C-5.93025391 7.11320313 -5.42300781 6.47640625 -4.90039062 5.8203125 C-1.24503968 1.24503968 -1.24503968 1.24503968 0 0 Z " fill="#FEF3E3" transform="translate(236,590)"/>
<path d="M0 0 C1.39617554 0.18320801 1.39617554 0.18320801 2.82055664 0.37011719 C9.30199153 1.30549435 9.30199153 1.30549435 12.6875 3.5625 C10.81377425 4.44022535 8.93841401 5.31446126 7.0625 6.1875 C6.47202881 6.46327881 5.88155762 6.73905762 5.27319336 7.02319336 C1.31130917 8.8583201 -2.69194083 10.51060887 -6.75 12.125 C-23.30439674 19.19337676 -38.25121064 29.43927806 -52.3125 40.5625 C-54.18568424 42.03041187 -56.06139587 43.4948718 -57.94116211 44.9543457 C-59.07538288 45.83644694 -60.20537904 46.7240172 -61.33032227 47.61791992 C-65.09077481 50.5625 -65.09077481 50.5625 -67.3125 50.5625 C-70.27940006 41.50734506 -72.63767708 32.43364179 -74.65991211 23.12963867 C-75.13183498 20.96870263 -75.61929599 18.81162376 -76.10742188 16.65429688 C-76.41239483 15.26843492 -76.71646598 13.88237413 -77.01953125 12.49609375 C-77.2925708 11.25915771 -77.56561035 10.02222168 -77.84692383 8.74780273 C-78.26880222 5.8614643 -78.31055978 4.25461838 -77.3125 1.5625 C-68.65088238 0.51633484 -59.98508904 -0.48639936 -51.3125 -1.4375 C-50.5479248 -1.52209473 -49.78334961 -1.60668945 -48.99560547 -1.69384766 C-32.75603624 -3.40393296 -16.14067835 -2.1422472 0 0 Z " fill="#F78824" transform="translate(412.3125,201.4375)"/>
<path d="M0 0 C1.32 0 2.64 0 4 0 C5.8671875 1.87890625 5.8671875 1.87890625 7.875 4.5625 C11.6247088 9.3493623 15.53044029 13.87473666 19.6875 18.3125 C20.5695813 19.25935669 20.5695813 19.25935669 21.46948242 20.2253418 C24.53777445 23.48878729 27.66153581 26.66543703 30.90625 29.75390625 C31.53958252 30.36258545 32.17291504 30.97126465 32.82543945 31.59838867 C34.02658699 32.74441602 35.24052209 33.87725831 36.46948242 34.9934082 C41.23835696 39.54859471 43.72408864 44.46441369 44.12915039 51.12304688 C44.07563571 53.10760907 43.88328082 55.08689356 43.6875 57.0625 C43.56761719 58.37347656 43.44773438 59.68445313 43.32421875 61.03515625 C43.21722656 62.01355469 43.11023438 62.99195313 43 64 C23.47112017 47.79518482 4.68833541 25.57273859 0 0 Z " fill="#FEF2E0" transform="translate(159,520)"/>
<path d="M0 0 C10.36767363 4.82384815 18.85647343 13.14196078 27 21 C27.60956543 21.58765137 28.21913086 22.17530273 28.84716797 22.78076172 C36.76859652 30.46172191 44.25125717 38.24929801 51 47 C51.7734375 47.96808594 52.546875 48.93617188 53.34375 49.93359375 C73.85522185 75.92993703 90.1200785 105.35425523 100 137 C100.39179443 138.23169922 100.39179443 138.23169922 100.79150391 139.48828125 C114.090203 181.74183786 116.65999862 225.85202818 108.5 269.375 C108.28641846 270.51783447 108.07283691 271.66066895 107.8527832 272.83813477 C107.53893677 274.41485962 107.53893677 274.41485962 107.21875 276.0234375 C107.03248047 276.96106934 106.84621094 277.89870117 106.65429688 278.86474609 C106.43837891 279.56937988 106.22246094 280.27401367 106 281 C105.34 281.33 104.68 281.66 104 282 C104.4721987 276.61693481 105.295476 271.47080293 106.4375 266.1875 C112.23760549 237.72651725 112.7692411 205.4802917 107 177 C106.69292696 175.32595666 106.38830534 173.65146209 106.0859375 171.9765625 C105.15776658 166.96108179 104.11420973 161.97727231 103 157 C102.82774902 156.23010742 102.65549805 155.46021484 102.47802734 154.66699219 C92.43043249 110.96969601 69.71726073 71.27131248 40 38 C39.22946289 37.13689209 39.22946289 37.13689209 38.44335938 36.25634766 C36.84516438 34.47601254 35.23791775 32.70450234 33.625 30.9375 C33.13692871 30.4007666 32.64885742 29.8640332 32.14599609 29.31103516 C29.92677638 26.91317856 27.71845198 24.77823273 25.1484375 22.75390625 C24.08496094 21.88572266 24.08496094 21.88572266 23 21 C23 20.34 23 19.68 23 19 C22.34 19 21.68 19 21 19 C21 18.34 21 17.68 21 17 C20.45859375 16.76539063 19.9171875 16.53078125 19.359375 16.2890625 C16.34408456 14.6416356 13.88815988 12.57346656 11.25 10.375 C10.26515625 9.55773437 9.2803125 8.74046875 8.265625 7.8984375 C7.51796875 7.27195312 6.7703125 6.64546875 6 6 C7.31043442 9.42173212 8.79724199 12.62928994 10.5390625 15.8515625 C24.61499572 42.16474295 35.67851001 69.5049198 41 99 C41.16371094 99.89589844 41.32742188 100.79179687 41.49609375 101.71484375 C45.52306083 125.17775113 44.28261968 149.29183222 44 173 C43.67 173 43.34 173 43 173 C42.970271 171.50726563 42.970271 171.50726563 42.93994141 169.984375 C42.19984664 134.0128786 40.95729531 98.33961695 29 64 C28.57726807 62.77120117 28.57726807 62.77120117 28.14599609 61.51757812 C21.48639508 42.43971505 12.90248079 23.86185754 2.42578125 6.57421875 C1.17440009 4.31487578 0.44950962 2.52324733 0 0 Z " fill="#FB9F24" transform="translate(763,290)"/>
<path d="M0 0 C1.28132813 0.00902344 2.56265625 0.01804687 3.8828125 0.02734375 C5.36394531 0.04474609 5.36394531 0.04474609 6.875 0.0625 C8.44260452 4.76531357 6.61567314 8.55013964 4.875 13.0625 C0.34686355 22.02572899 -5.78886648 27.39824309 -15.125 31.0625 C-22.80938234 33.43219366 -29.91365723 31.09163002 -37.125 28.0625 C-40.12194549 26.35786154 -42.5997774 24.40165357 -45.125 22.0625 C-45.87136719 21.3715625 -46.61773437 20.680625 -47.38671875 19.96875 C-51.38581946 16.11621319 -51.38581946 16.11621319 -53.125 14.0625 C-53.125 13.4025 -53.125 12.7425 -53.125 12.0625 C-50.41620665 10.70810332 -48.11566732 10.99748549 -45.125 11.0625 C-44.7846875 12.238125 -44.7846875 12.238125 -44.4375 13.4375 C-43.36936028 16.2001793 -43.36936028 16.2001793 -40.9375 17.25 C-40.009375 17.518125 -39.08125 17.78625 -38.125 18.0625 C-37.0525 18.454375 -35.98 18.84625 -34.875 19.25 C-28.91330351 20.54170091 -24.23078711 20.1749913 -18.8125 17.3125 C-13.71158068 13.0419629 -11.61120423 9.26054326 -9.8359375 2.953125 C-8.25260665 -1.2574911 -3.83638086 -0.03487619 0 0 Z " fill="#FDF2E3" transform="translate(465.125,368.9375)"/>
<path d="M0 0 C0.99 0.495 0.99 0.495 2 1 C-3.66856326 10.25787892 -9.36021215 19.39633123 -16 28 C-16.64582031 28.84884766 -16.64582031 28.84884766 -17.3046875 29.71484375 C-28.66419967 44.55752125 -41.81081425 57.85140572 -56 70 C-57.09402094 70.95020897 -58.18778386 71.90071513 -59.28125 72.8515625 C-71.64419167 83.52726351 -84.33468509 93.75589383 -97.25732422 103.74487305 C-103.20280566 108.35071845 -109.05762984 113.05979145 -114.875 117.82617188 C-123.63385018 125 -123.63385018 125 -126 125 C-126 125.66 -126 126.32 -126 127 C-127.43384751 128.24184201 -128.92677025 129.41542288 -130.4375 130.5625 C-136.90347725 135.69476393 -142.59833079 141.48448311 -148.33569336 147.41040039 C-149.39348999 148.49309204 -149.39348999 148.49309204 -150.47265625 149.59765625 C-151.10437744 150.25258057 -151.73609863 150.90750488 -152.38696289 151.58227539 C-154 153 -154 153 -156 153 C-156.23178955 153.55848633 -156.4635791 154.11697266 -156.70239258 154.69238281 C-158.34019671 157.60499328 -160.37538715 159.58190794 -162.76171875 161.921875 C-163.23060013 162.38555481 -163.69948151 162.84923462 -164.18257141 163.32696533 C-165.67951598 164.80617025 -167.18295749 166.27852701 -168.6875 167.75 C-175.02984828 173.97322856 -181.25277954 180.21428941 -187 187 C-188.47677835 188.66878324 -189.95542661 190.33591759 -191.4375 192 C-192.11683594 192.763125 -192.79617188 193.52625 -193.49609375 194.3125 C-193.99238281 194.869375 -194.48867188 195.42625 -195 196 C-195 192.46060322 -194.55523257 192.13880123 -192.25 189.625 C-191.60546875 188.91601562 -190.9609375 188.20703125 -190.296875 187.4765625 C-189.53890625 186.65929687 -188.7809375 185.84203125 -188 185 C-187.13890625 184.05898438 -186.2778125 183.11796875 -185.390625 182.1484375 C-182.83507721 179.35988388 -180.26350156 176.58655186 -177.6875 173.81689453 C-175.98557219 171.98446589 -174.28963942 170.14661027 -172.59375 168.30859375 C-145.36583821 138.90919973 -145.36583821 138.90919973 -130 127 C-128.72030295 125.88509291 -127.44918362 124.76025186 -126.1875 123.625 C-120.93921144 118.98598323 -115.37168793 114.7402191 -109.84667969 110.43945312 C-106.30571122 107.6793328 -102.77940598 104.90051822 -99.25146484 102.1237793 C-96.34149387 99.83482387 -93.42662017 97.55279694 -90.5 95.28515625 C-82.72594598 89.2474667 -75.19897674 82.97859461 -67.76757812 76.52490234 C-65.97549085 74.97885578 -64.16988737 73.45019393 -62.359375 71.92578125 C-56.04010306 66.5930982 -50.0043886 61.15495085 -44.2265625 55.2265625 C-42.22250592 53.22250592 -40.16792527 51.38493917 -38 49.5625 C-22.27421937 35.93557854 -10.60460939 17.71507329 0 0 Z " fill="#FCA327" transform="translate(726,550)"/>
<path d="M0 0 C1.49210875 2.77797509 2.45241265 5.3680036 3.19140625 8.4296875 C10.0123039 35.60460875 21.51910238 61.269546 38 84 C38.39509766 84.54527344 38.79019531 85.09054687 39.19726562 85.65234375 C52.10080404 103.2653569 66.79692363 119.51963236 84 133 C85.11536352 133.89355827 86.229911 134.78813585 87.34375 135.68359375 C95.00402924 141.81053758 102.86052214 147.52410543 111 153 C112.54510681 150.68233978 113.90948099 148.41684912 115.2421875 145.98046875 C115.66886719 145.20509766 116.09554687 144.42972656 116.53515625 143.63085938 C117.42163899 142.01425601 118.3070724 140.39707675 119.19140625 138.77929688 C121.61788598 134.37447105 124.13673235 130.13509119 127 126 C127.33 126.66 127.66 127.32 128 128 C127.27490234 129.73657227 127.27490234 129.73657227 126.0859375 131.81640625 C125.65410156 132.58146484 125.22226562 133.34652344 124.77734375 134.13476562 C124.31457031 134.93591797 123.85179687 135.73707031 123.375 136.5625 C122.93542969 137.33658203 122.49585938 138.11066406 122.04296875 138.90820312 C121.15356514 140.47444027 120.26130074 142.03905628 119.36621094 143.60205078 C117.21181717 147.38340454 115.10524837 151.19112511 113 155 C108.67919032 154.09664358 105.47757456 151.88961571 101.875 149.4375 C101.20484863 148.9849585 100.53469727 148.53241699 99.84423828 148.06616211 C94.33314175 144.30534534 89.11400684 140.28579504 84 136 C83.07703125 135.26136719 82.1540625 134.52273438 81.203125 133.76171875 C66.43596207 121.71186372 52.36597328 108.09733356 41.17822266 92.62255859 C39.98983579 90.98600262 38.76982531 89.37738712 37.54296875 87.76953125 C20.6021248 65.23510682 -1.21911623 29.25878952 0 0 Z " fill="#FC9F25" transform="translate(395,729)"/>
<path d="M0 0 C2 1 2 1 2.859375 3.37890625 C3.15328125 4.42949219 3.4471875 5.48007812 3.75 6.5625 C12.04642683 34.34798766 25.84640074 58.30621303 45 80 C45.721875 80.84433594 46.44375 81.68867187 47.1875 82.55859375 C51.46150593 87.50876077 55.98979762 91.8085163 61 96 C61.75667969 96.67933594 62.51335937 97.35867188 63.29296875 98.05859375 C68.4094626 102.54024937 73.68919715 106.52775109 79.33203125 110.31640625 C79.89611191 110.69547119 80.46019257 111.07453613 81.04136658 111.46508789 C83.92202713 113.39474475 86.81334164 115.30617751 89.71850586 117.19873047 C90.78593018 117.90529785 91.85335449 118.61186523 92.953125 119.33984375 C93.92411133 119.97269287 94.89509766 120.60554199 95.89550781 121.25756836 C96.58999023 121.8325708 97.28447266 122.40757324 98 123 C98 123.99 98 124.98 98 126 C97.20078125 125.443125 96.4015625 124.88625 95.578125 124.3125 C94.4689212 123.54142034 93.35953172 122.77060774 92.25 122 C91.66307373 121.59209229 91.07614746 121.18418457 90.47143555 120.76391602 C86.62139325 118.09715071 82.73220868 115.50136667 78.8125 112.9375 C68.71147188 106.21230697 59.8050605 98.30435664 51 90 C50.26652344 89.3090625 49.53304687 88.618125 48.77734375 87.90625 C27.16307711 66.936544 11.4605132 39.38153961 2 11 C2 23.21 2 35.42 2 48 C-1.99007445 40.01985111 -1.1551113 30.75235263 -1.125 22 C-1.12886719 20.8759375 -1.13273437 19.751875 -1.13671875 18.59375 C-1.1293792 12.31109126 -0.83129747 6.22813345 0 0 Z " fill="#F99D25" transform="translate(391,668)"/>
<path d="M0 0 C5.2229217 1.48992437 9.50908959 3.84951522 14.125 6.625 C14.87563721 7.07230469 15.62627441 7.51960937 16.3996582 7.98046875 C22.73964214 11.78649224 28.9278715 15.77834866 35 20 C35.5578418 20.38655762 36.11568359 20.77311523 36.69042969 21.17138672 C44.75188771 26.77616766 52.53065132 32.61564845 60 39 C60.76054688 39.64839844 61.52109375 40.29679687 62.3046875 40.96484375 C64.9199667 43.25871659 67.47352098 45.60942155 70 48 C70.62181152 48.5878125 71.24362305 49.175625 71.88427734 49.78125 C82.37908437 59.78717621 91.59772845 70.18752955 100 82 C100.44923828 82.61520508 100.89847656 83.23041016 101.36132812 83.86425781 C114.18506629 101.47539748 125.61139757 124.11922217 128 146 C126.02 145.01 126.02 145.01 124 144 C124.33 143.34 124.66 142.68 125 142 C124.49899371 139.71469694 124.49899371 139.71469694 123.59375 137.1171875 C123.26584473 136.12267578 122.93793945 135.12816406 122.60009766 134.10351562 C122.23706543 133.03810547 121.8740332 131.97269531 121.5 130.875 C121.13052246 129.78638672 120.76104492 128.69777344 120.38037109 127.57617188 C113.48228715 107.55959537 104.10667182 90.65345936 91 74 C90.36320313 73.15824219 89.72640625 72.31648438 89.0703125 71.44921875 C78.77764676 58.25297999 66.34563113 46.08609911 53 36 C51.66388672 34.95585937 51.66388672 34.95585937 50.30078125 33.890625 C34.6557613 21.8527106 17.77611741 10.6396347 0 2 C0 1.34 0 0.68 0 0 Z " fill="#FDF9F5" transform="translate(632,247)"/>
<path d="M0 0 C0.99 0.495 0.99 0.495 2 1 C-8.36271264 8.58652913 -18.8309263 15.98439129 -29.46020508 23.19287109 C-48.72681757 36.26467327 -67.77269594 49.66443006 -86.70239258 63.21899414 C-91.20283339 66.43888925 -95.72478399 69.62755167 -100.25 72.8125 C-107.27350568 77.75724197 -114.24746508 82.76804507 -121.20019531 87.81176758 C-122.27285645 88.58943481 -122.27285645 88.58943481 -123.3671875 89.3828125 C-124.31247314 90.06947998 -124.31247314 90.06947998 -125.27685547 90.77001953 C-126.82926318 91.87812807 -128.41301282 92.94200855 -130 94 C-123.07 94.495 -123.07 94.495 -116 95 C-116 95.33 -116 95.66 -116 96 C-122.27 96 -128.54 96 -135 96 C-129.37300094 90.37300094 -129.37300094 90.37300094 -126.27734375 88.16015625 C-125.58447266 87.66193359 -124.89160156 87.16371094 -124.17773438 86.65039062 C-123.43845703 86.12638672 -122.69917969 85.60238281 -121.9375 85.0625 C-121.15310547 84.50111328 -120.36871094 83.93972656 -119.56054688 83.36132812 C-112.89355006 78.60219917 -106.17806265 73.91204386 -99.45800781 69.22827148 C-93.99398674 65.41473036 -88.57681774 61.5432401 -83.1875 57.625 C-73.55364729 50.62935726 -63.77372779 43.84868278 -53.98632812 37.0703125 C-49.98858461 34.29882255 -45.9972819 31.5181308 -42.00585938 28.73754883 C-28.08273226 19.04009541 -14.15536426 9.3564813 0 0 Z " fill="#FDFAF6" transform="translate(291,379)"/>
<path d="M0 0 C1.32 0 2.64 0 4 0 C5.8671875 1.87890625 5.8671875 1.87890625 7.875 4.5625 C11.6247088 9.3493623 15.53044029 13.87473666 19.6875 18.3125 C20.5695813 19.25935669 20.5695813 19.25935669 21.46948242 20.2253418 C24.53777445 23.48878729 27.66153581 26.66543703 30.90625 29.75390625 C31.53958252 30.36258545 32.17291504 30.97126465 32.82543945 31.59838867 C34.02658699 32.74441602 35.24052209 33.87725831 36.46948242 34.9934082 C41.23835696 39.54859471 43.72408864 44.46441369 44.12915039 51.12304688 C44.07563571 53.10760907 43.88328082 55.08689356 43.6875 57.0625 C43.56761719 58.37347656 43.44773438 59.68445313 43.32421875 61.03515625 C43.21722656 62.01355469 43.11023438 62.99195313 43 64 C28.49530248 51.96418717 11.96120482 35.01260908 5 17 C5.33 16.01 5.66 15.02 6 14 C6.53367188 15.00417969 7.06734375 16.00835938 7.6171875 17.04296875 C16.52865022 33.52907335 28.015361 46.57737747 41 60 C41.08246447 58.16745615 41.1398399 56.33377912 41.1875 54.5 C41.22230469 53.4790625 41.25710937 52.458125 41.29296875 51.40625 C40.38011048 40.79275117 34.02634987 35.44387078 26.75 28.5 C24.69843732 26.51521745 22.65356032 24.52362641 20.609375 22.53125 C20.11760269 22.05429687 19.62583038 21.57734375 19.11915588 21.0859375 C15.69803392 17.74750333 12.4866758 14.2908493 9.4050293 10.63867188 C7.39271155 8.29172545 5.21849938 6.15127212 3 4 C3.66 6.97 4.32 9.94 5 13 C4.34 12.67 3.68 12.34 3 12 C2.1484375 9.27734375 2.1484375 9.27734375 1.375 5.9375 C0.98441406 4.28041016 0.98441406 4.28041016 0.5859375 2.58984375 C0.39257812 1.73519531 0.19921875 0.88054688 0 0 Z " fill="#FCF9F4" transform="translate(159,520)"/>
<path d="M0 0 C0.99 0.33 1.98 0.66 3 1 C3 1.66 3 2.32 3 3 C4.42991589 4.26623221 5.92394269 5.46003316 7.4375 6.625 C41.41881986 33.85390275 69.62881116 70.24824147 83 112 C83 112.66 83 113.32 83 114 C82.34 114 81.68 114 81 114 C80.61070312 112.86046875 80.22140625 111.7209375 79.8203125 110.546875 C70.15308436 82.90681362 55.41163152 58.28944933 35.46875 36.8125 C34 35 34 35 34 33 C33.34 33 32.68 33 32 33 C30.6953125 31.63671875 30.6953125 31.63671875 29.125 29.6875 C23.22176619 22.75973801 16.34851441 16.7391692 9.3359375 10.95703125 C8.4380249 10.2141687 8.4380249 10.2141687 7.52197266 9.45629883 C6.35943608 8.50086611 5.19000348 7.55375031 4.01318359 6.6159668 C2.62020047 5.47495162 1.30231481 4.2435006 0 3 C0 2.01 0 1.02 0 0 Z " fill="#FDFBF6" transform="translate(480,422)"/>
<path d="M0 0 C4.79115677 4.46176069 7.53184102 9.76096544 10.6875 15.4375 C11.30818359 16.55261963 11.92886719 17.66773926 12.56835938 18.81665039 C22.05276693 36.1296337 34.38912874 58.76530578 34 79 C33.67 79 33.34 79 33 79 C32.83508057 78.35264893 32.67016113 77.70529785 32.50024414 77.03833008 C25.90922534 51.5181033 15.99679379 28.33998068 2 6 C1.67 7.65 1.34 9.3 1 11 C0.67 11 0.34 11 0 11 C0 7.37 0 3.74 0 0 Z " fill="#FCA123" transform="translate(751,465)"/>
<path d="M0 0 C17.33558651 7.57946047 29.13870749 32.83635236 37 49 C39.27994301 42.16017096 40.07048984 35.12954067 41 28 C41.33 28 41.66 28 42 28 C42.38385489 34.71035215 41.83403085 41.03700049 40.625 47.625 C40.49891357 48.33591797 40.37282715 49.04683594 40.24291992 49.77929688 C39.90099884 51.53518857 39.45856862 53.27090183 39 55 C38.01 55.495 38.01 55.495 37 56 C36.72961914 55.3922876 36.45923828 54.7845752 36.18066406 54.15844727 C27.89148217 35.71623348 18.48628752 20.08027599 4.3984375 5.5390625 C2 3 2 3 0 0 Z " fill="#FCF9F4" transform="translate(634,430)"/>
<path d="M0 0 C1.0533252 0.03448242 2.10665039 0.06896484 3.19189453 0.10449219 C4.18431152 0.14864258 5.17672852 0.19279297 6.19921875 0.23828125 C7.08826904 0.27606689 7.97731934 0.31385254 8.89331055 0.3527832 C11.41536895 0.70173285 13.12126875 1.42013234 15.3125 2.6875 C14.35811035 2.67178955 13.4037207 2.6560791 12.42041016 2.63989258 C-6.75526195 2.35236651 -25.30886953 2.71922569 -44.33496094 5.40625 C-47.13294321 5.74075348 -49.87284 5.80199464 -52.6875 5.6875 C-52.34525391 7.02554688 -52.34525391 7.02554688 -51.99609375 8.390625 C-51.70863281 9.56109375 -51.42117188 10.7315625 -51.125 11.9375 C-50.83496094 13.09765625 -50.54492188 14.2578125 -50.24609375 15.453125 C-49.73570036 18.40840983 -49.65753835 19.93184101 -50.6875 22.6875 C-52.92918578 16.92316514 -54.02907287 10.82327747 -54.6875 4.6875 C-52.99456355 2.99456355 -50.75099898 3.23663729 -48.4296875 2.96875 C-46.7907251 2.77780762 -46.7907251 2.77780762 -45.11865234 2.58300781 C-43.94512207 2.45249023 -42.7715918 2.32197266 -41.5625 2.1875 C-39.7693335 1.98785645 -39.7693335 1.98785645 -37.93994141 1.78417969 C-34.52329218 1.41027347 -31.10571714 1.04675292 -27.6875 0.6875 C-26.924375 0.60435547 -26.16125 0.52121094 -25.375 0.43554688 C-16.88876811 -0.46002883 -8.51600454 -0.29977948 0 0 Z " fill="#FB9F25" transform="translate(388.6875,199.3125)"/>
<path d="M0 0 C0.66 0 1.32 0 2 0 C-0.03034261 8.34208259 -2.90638318 16.13820503 -6.1875 24.0625 C-7.10067949 26.28131024 -8.01099391 28.50130254 -8.91796875 30.72265625 C-9.31781982 31.68953369 -9.7176709 32.65641113 -10.12963867 33.65258789 C-11.11588261 35.89527974 -11.11588261 35.89527974 -11 38 C-9.42798828 37.02546875 -9.42798828 37.02546875 -7.82421875 36.03125 C-6.44552546 35.18715207 -5.06660746 34.34342109 -3.6875 33.5 C-2.99720703 33.07074219 -2.30691406 32.64148438 -1.59570312 32.19921875 C-0.59506836 31.59013672 -0.59506836 31.59013672 0.42578125 30.96875 C1.34484253 30.40317383 1.34484253 30.40317383 2.2824707 29.82617188 C4 29 4 29 7 29 C0.32168773 34.66204736 -7.15085789 38.27386231 -15 42 C-15.33 41.34 -15.66 40.68 -16 40 C-15.29077148 37.93139648 -15.29077148 37.93139648 -14.12109375 35.37109375 C-13.69683105 34.42564697 -13.27256836 33.4802002 -12.83544922 32.50610352 C-12.37412598 31.49346436 -11.91280273 30.4808252 -11.4375 29.4375 C-7.11959257 19.76657035 -3.31970533 10.05357914 0 0 Z " fill="#F99D26" transform="translate(770,680)"/>
<path d="M0 0 C2.31 0 4.62 0 7 0 C5.02 0.99 5.02 0.99 3 2 C10.57031662 10.47273846 19.3326447 16.38166489 30.875 17.3125 C37.0480935 17.14436127 43.38851741 15.2104841 48 11 C48.66 11.33 49.32 11.66 50 12 C43.94571824 17.32042942 37.1101719 20.39144118 29 20 C20.8053599 18.3912363 14.13221898 15.68037127 8 10 C7.25363281 9.3090625 6.50726563 8.618125 5.73828125 7.90625 C1.73918054 4.05371319 1.73918054 4.05371319 0 2 C0 1.34 0 0.68 0 0 Z " fill="#FCF9F6" transform="translate(412,381)"/>
<path d="M0 0 C4.04097493 0.53974358 6.29844228 1.67608458 9.4375 4.25 C10.21738281 4.88808594 10.99726562 5.52617187 11.80078125 6.18359375 C12.88939453 7.08271484 12.88939453 7.08271484 14 8 C15.546875 9.1446875 15.546875 9.1446875 17.125 10.3125 C25.24751525 17.905286 33.57765618 30.74222346 34.09765625 42.140625 C34.06510417 44.09375 34.03255208 46.046875 34 48 C33.67 48 33.34 48 33 48 C32.8040625 47.00742188 32.608125 46.01484375 32.40625 44.9921875 C28.94604686 28.77625292 21.92031399 15.55702337 7.91796875 5.8671875 C5.98264846 4.63991122 4.02958962 3.43985539 2.0546875 2.27734375 C1.37664063 1.85582031 0.69859375 1.43429688 0 1 C0 0.67 0 0.34 0 0 Z " fill="#FCF9F4" transform="translate(726,163)"/>
<path d="M0 0 C-1.11375 0.20753906 -2.2275 0.41507812 -3.375 0.62890625 C-13.1274891 2.55876161 -21.84539917 5.27251467 -30.83984375 9.51171875 C-34 11 -34 11 -37 12 C-37.12117187 12.91523438 -37.24234375 13.83046875 -37.3671875 14.7734375 C-37.53476562 15.96195312 -37.70234375 17.15046875 -37.875 18.375 C-38.11863281 20.15003906 -38.11863281 20.15003906 -38.3671875 21.9609375 C-39 25 -39 25 -41 27 C-40.91227545 25.10333474 -40.80408699 23.20761007 -40.6875 21.3125 C-40.62949219 20.25675781 -40.57148438 19.20101563 -40.51171875 18.11328125 C-39.94211379 14.64782209 -39.14976127 12.76734619 -37 10 C-28.77670874 4.32688364 -18.54557562 1.62424916 -9 -1 C-7.65228516 -1.37705078 -7.65228516 -1.37705078 -6.27734375 -1.76171875 C-3.55181213 -2.04689444 -2.28788878 -1.44052256 0 0 Z " fill="#FBF7F2" transform="translate(552,347)"/>
<path d="M0 0 C0.66 0.33 1.32 0.66 2 1 C-6.6407312 8.80852963 -15.29839622 16.50262158 -24.38671875 23.7890625 C-27.07651384 26.06473368 -29.52425965 28.49537601 -32 31 C-33.64864545 32.35555293 -35.31003995 33.69631653 -37 35 C-37.33 34.34 -37.66 33.68 -38 33 C-37.58492188 32.64550781 -37.16984375 32.29101562 -36.7421875 31.92578125 C-32.74299264 28.47040996 -28.83976749 24.92935297 -24.98657227 21.31298828 C-18.52785255 15.25306318 -11.94666492 9.50085498 -5 4 C-3.33310718 2.66694941 -1.66637684 1.33369554 0 0 Z " fill="#FDFAF5" transform="translate(348,279)"/>
<path d="M0 0 C1.98 0 3.96 0 6 0 C4.552181 2.895638 2.68629717 3.12416703 -0.29296875 4.3203125 C-1.3924585 4.76987305 -2.49194824 5.21943359 -3.62475586 5.68261719 C-5.38831421 6.39659668 -5.38831421 6.39659668 -7.1875 7.125 C-16.07067016 10.77725905 -24.45285442 14.58078854 -32.55859375 19.734375 C-33.36425781 20.15203125 -34.16992188 20.5696875 -35 21 C-35.99 20.67 -36.98 20.34 -38 20 C-28.98441516 14.85426269 -19.94702607 9.82207988 -10.5625 5.375 C-9.84779541 5.03275391 -9.13309082 4.69050781 -8.39672852 4.33789062 C-5.42520037 2.95441327 -3.31763184 2 0 2 C0 1.34 0 0.68 0 0 Z " fill="#F89E24" transform="translate(419,204)"/>
<path d="M0 0 C-0.95519531 0.4846875 -1.91039062 0.969375 -2.89453125 1.46875 C-11.1494634 5.72521611 -18.66328957 10.26485837 -26 16 C-26 15.01 -26 14.02 -26 13 C-20.38928308 7.9102007 -7.94083275 -3.07684239 0 0 Z " fill="#FBF7F1" transform="translate(671,162)"/>
<path d="M0 0 C8.87401033 0.69276661 14.21436344 5.77897834 20.00390625 12.234375 C22.50753034 15.4438401 24.19883778 17.96748349 25 22 C22.37113276 19.57335331 20.29367031 17.0397429 18.25 14.125 C13.4527991 7.63609097 7.48191939 3.80571977 0 1 C0 0.67 0 0.34 0 0 Z " fill="#FCF9F4" transform="translate(397,417)"/>
<path d="M0 0 C1.28132813 0.00902344 2.56265625 0.01804687 3.8828125 0.02734375 C4.87023437 0.03894531 5.85765625 0.05054688 6.875 0.0625 C7.875 3.0625 7.875 3.0625 6.9375 5.25 C6.586875 5.848125 6.23625 6.44625 5.875 7.0625 C5.545 6.4025 5.215 5.7425 4.875 5.0625 C5.205 4.0725 5.535 3.0825 5.875 2.0625 C3.74922093 2.1493276 1.62430419 2.2574951 -0.5 2.375 C-1.68335938 2.43300781 -2.86671875 2.49101562 -4.0859375 2.55078125 C-5.08882813 2.71964844 -6.09171875 2.88851563 -7.125 3.0625 C-7.785 4.0525 -8.445 5.0425 -9.125 6.0625 C-9.125 4.4125 -9.125 2.7625 -9.125 1.0625 C-6.12186252 -0.43906874 -3.33432478 -0.03031204 0 0 Z " fill="#FCF8F1" transform="translate(465.125,368.9375)"/>
<path d="M0 0 C0.66 0.33 1.32 0.66 2 1 C-3.86857835 5.87102616 -9.71696514 10.67168709 -16 15 C-16.66 14.67 -17.32 14.34 -18 14 C-17.67 13.01 -17.34 12.02 -17 11 C-15.13964844 10.45532227 -15.13964844 10.45532227 -13 10 C-10.68058436 8.36128243 -8.46408182 6.7063324 -6.25 4.9375 C-5.34701172 4.22883789 -5.34701172 4.22883789 -4.42578125 3.50585938 C-2.94590057 2.34309599 -1.47231904 1.1723234 0 0 Z " fill="#FCA325" transform="translate(629,750)"/>
<path d="M0 0 C0.703125 1.58984375 0.703125 1.58984375 1 4 C-0.328125 7.12890625 -0.328125 7.12890625 -2.25 10.5625 C-2.87390625 11.69816406 -3.4978125 12.83382813 -4.140625 14.00390625 C-5.63215625 16.40727699 -6.88636364 18.16687711 -9 20 C-9.66 19.67 -10.32 19.34 -11 19 C-10.54109375 18.38253906 -10.0821875 17.76507813 -9.609375 17.12890625 C-5.6338245 11.64164432 -2.4571435 6.31836899 0 0 Z " fill="#FCF8F4" transform="translate(365,366)"/>
<path d="M0 0 C0.66 0.33 1.32 0.66 2 1 C-0.57537548 2.98969679 -3.16156778 4.96482804 -5.75 6.9375 C-6.47960937 7.50146484 -7.20921875 8.06542969 -7.9609375 8.64648438 C-8.66992188 9.18466797 -9.37890625 9.72285156 -10.109375 10.27734375 C-10.75874023 10.77484131 -11.40810547 11.27233887 -12.07714844 11.78491211 C-14.06394635 13.04040896 -15.70333156 13.56881614 -18 14 C-14.36364015 10.14449982 -10.58308152 7.13258862 -6.1875 4.1875 C-5.59001953 3.78080078 -4.99253906 3.37410156 -4.37695312 2.95507812 C-2.92125436 1.96520297 -1.46108826 0.98190265 0 0 Z " fill="#FBA125" transform="translate(378,226)"/>
<path d="M0 0 C0.66 0.33 1.32 0.66 2 1 C1.49210938 1.49628906 0.98421875 1.99257812 0.4609375 2.50390625 C-3.92843274 6.83573792 -8.05208718 11.26250461 -12 16 C-12.66 15.67 -13.32 15.34 -14 15 C-4.58997722 4.44191344 -4.58997722 4.44191344 0 0 Z " fill="#FCF9F4" transform="translate(637,182)"/>
<path d="M0 0 C2.31 0.33 4.62 0.66 7 1 C3.77359867 5.90974115 -0.5615329 8.89672543 -6 11 C-6.99 10.67 -7.98 10.34 -9 10 C-8.38511719 9.66226563 -7.77023437 9.32453125 -7.13671875 8.9765625 C-6.32847656 8.53054688 -5.52023437 8.08453125 -4.6875 7.625 C-3.88699219 7.18414063 -3.08648437 6.74328125 -2.26171875 6.2890625 C-0.46472057 5.26486665 1.27900708 4.14732862 3 3 C2.01 2.01 1.02 1.02 0 0 Z " fill="#FDFBF6" transform="translate(356,616)"/>
<path d="M0 0 C0 0.66 0 1.32 0 2 C-1.92587579 3.63139937 -3.84326717 5.13723225 -5.875 6.625 C-6.43058594 7.04523438 -6.98617188 7.46546875 -7.55859375 7.8984375 C-11.73764712 11 -11.73764712 11 -14 11 C-13.67 9.68 -13.34 8.36 -13 7 C-12.34 7 -11.68 7 -11 7 C-9.46614037 5.87822206 -7.97074515 4.70333694 -6.5 3.5 C-2.22222222 0 -2.22222222 0 0 0 Z " fill="#FAA126" transform="translate(359,241)"/>
<path d="M0 0 C0.66 0.33 1.32 0.66 2 1 C-3.445 7.93 -3.445 7.93 -9 15 C-9.33 14.34 -9.66 13.68 -10 13 C-8.71053695 11.20674674 -7.41835648 9.41544722 -6.125 7.625 C-5.04605469 6.12839844 -5.04605469 6.12839844 -3.9453125 4.6015625 C-2 2 -2 2 0 0 Z " fill="#FDA327" transform="translate(519,758)"/>
<path d="M0 0 C0 3.73928499 -0.91959602 4.40902253 -3.375 7.125 C-4.31472656 8.18074219 -4.31472656 8.18074219 -5.2734375 9.2578125 C-7 11 -7 11 -9 12 C-8.690625 11.443125 -8.38125 10.88625 -8.0625 10.3125 C-6.94238179 7.87459567 -6.43962636 5.63775814 -6 3 C-4.68 3.33 -3.36 3.66 -2 4 C-1.34 2.68 -0.68 1.36 0 0 Z " fill="#FB9F26" transform="translate(759,645)"/>
<path d="M0 0 C3.2826932 1.49076434 5.93077441 3.38620321 8.75 5.625 C9.94882812 6.57246094 9.94882812 6.57246094 11.171875 7.5390625 C11.77515625 8.02117187 12.3784375 8.50328125 13 9 C12.34 9.66 11.68 10.32 11 11 C9.16365304 9.35742342 7.3308593 7.71117305 5.5 6.0625 C4.97535156 5.59392578 4.45070313 5.12535156 3.91015625 4.64257812 C2.5878256 3.44904592 1.29166061 2.22665821 0 1 C0 0.67 0 0.34 0 0 Z " fill="#FEFAF4" transform="translate(621,419)"/>
<path d="M0 0 C0.66 0.33 1.32 0.66 2 1 C0.92646259 2.4655595 -0.1592554 3.92220152 -1.25 5.375 C-1.85328125 6.18710937 -2.4565625 6.99921875 -3.078125 7.8359375 C-4.97181904 9.96826778 -6.38328518 10.94636704 -9 12 C-7.55575365 8.76138697 -5.74227753 6.38030837 -3.375 3.75 C-2.74335938 3.04359375 -2.11171875 2.3371875 -1.4609375 1.609375 C-0.97882813 1.07828125 -0.49671875 0.5471875 0 0 Z " fill="#FCF7F0" transform="translate(496,406)"/>
<path d="M0 0 C2.0625 1.75 2.0625 1.75 4 4 C3.75 6.25 3.75 6.25 3 8 C2.67 7.34 2.34 6.68 2 6 C1.67 7.65 1.34 9.3 1 11 C0.67 11 0.34 11 0 11 C0 7.37 0 3.74 0 0 Z " fill="#FAA628" transform="translate(751,465)"/>
<path d="M0 0 C0.66 0.33 1.32 0.66 2 1 C-1.465 3.97 -1.465 3.97 -5 7 C-5.66 6.67 -6.32 6.34 -7 6 C-5.01180815 3.01771223 -3.42353587 1.21480305 0 0 Z " fill="#FC9E24" transform="translate(792,695)"/>
<path d="M0 0 C0.99 0 1.98 0 3 0 C3 3.52032428 2.29648649 4.4385343 0 7 C-0.66 7 -1.32 7 -2 7 C-1.34 4.69 -0.68 2.38 0 0 Z " fill="#F6F4F0" transform="translate(736,272)"/>
</svg>
